<svg width="205" height="92" viewBox="0 0 205 92" fill="none" xmlns="http://www.w3.org/2000/svg">
<g filter="url(#filter0_d)">
<path d="M20 25C20 19.4772 24.4772 15 30 15H57C62.5229 15 67 19.4772 67 25V52C67 57.5229 62.5228 62 57 62H45.0626C43.6153 62 42.2469 62.6594 41.345 63.7913L40.0349 65.4357C38.2786 67.6401 34.783 67.0518 33.8449 64.394C33.3386 62.9594 31.9826 62 30.4613 62H27.6134C23.4086 62 20 58.5914 20 54.3866V25Z" fill="black"/>
</g>
<path d="M47.3111 39.5902C46.4536 37.5819 44.6562 36.1668 42.5028 35.8049C40.3495 35.4431 38.1882 36.1931 36.7216 37.8109L33.1871 41.709C32.6007 42.3557 32.2456 43.1571 32.1602 44.0259C32.0747 44.895 32.2672 45.7499 32.7165 46.4989C33.1664 47.2474 33.831 47.819 34.6383 48.152C35.4457 48.485 36.3202 48.5476 37.167 48.3335L37.2237 48.319C39.3516 47.7976 41.6177 48.1865 43.4506 49.3894C43.9234 49.6996 44.4453 49.904 44.9911 49.9957C45.2878 50.0456 45.592 50.0621 45.8991 50.0444C46.771 49.9937 47.5858 49.6707 48.2558 49.1102C48.9254 48.5499 49.387 47.8046 49.5905 46.9552C49.794 46.1058 49.7203 45.2326 49.3775 44.4294L47.3111 39.5902Z" fill="#F4CB38"/>
<path d="M34.6764 37.4613C35.5632 37.2813 36.309 36.7163 36.7761 35.8703C37.2208 35.0653 37.3585 34.0952 37.1636 33.1386C36.9685 32.1825 36.4623 31.3437 35.7382 30.7765C34.9776 30.1808 34.0705 29.9522 33.1849 30.1331C31.4034 30.4952 30.2881 32.434 30.6986 34.456C31.0274 36.0657 32.2265 37.2484 33.6009 37.4794C33.9518 37.5383 34.3142 37.5352 34.6764 37.4613Z" fill="#F4CB38"/>
<path d="M40.6852 34.9517C42.7771 35.3032 44.8048 33.6502 45.2052 31.2669C45.6058 28.883 44.2298 26.6577 42.1379 26.3062C40.0463 25.9547 38.0187 27.6081 37.6181 29.992C37.2177 32.3753 38.5935 34.6002 40.6852 34.9517Z" fill="#F4CB38"/>
<path d="M47.0586 37.1145H47.0588C47.3626 37.2754 47.6824 37.3816 48.0093 37.4365C49.5348 37.6928 51.2081 36.8323 52.0621 35.2212C52.5539 34.2938 52.7069 33.2516 52.493 32.2866C52.2693 31.2765 51.6755 30.4708 50.8208 30.0178C49.9659 29.5648 48.9657 29.5258 48.0042 29.9076C47.0856 30.2724 46.3092 30.9842 45.8178 31.9116C44.7809 33.868 45.3376 36.202 47.0586 37.1145Z" fill="#F4CB38"/>
<path d="M55.1327 37.9525L55.1322 37.9518C53.8686 36.6438 51.6336 36.7431 50.1493 38.1738C48.6662 39.6054 48.4858 41.8349 49.7471 43.1433C50.207 43.6208 50.7964 43.9111 51.4317 44.0178C52.5389 44.2039 53.7858 43.8323 54.7305 42.9225C56.2135 41.4908 56.394 39.2614 55.1327 37.9525Z" fill="#F4CB38"/>
<path d="M96.446 30.4V43H92.198V38.356H88.274V43H84.026V30.4H88.274V34.864H92.198V30.4H96.446ZM108.249 40.804H103.461L102.615 43H98.2948L103.803 30.4H107.979L113.487 43H109.095L108.249 40.804ZM107.079 37.744L105.855 34.576L104.631 37.744H107.079ZM121.401 30.4C122.565 30.4 123.579 30.592 124.443 30.976C125.307 31.36 125.973 31.912 126.441 32.632C126.909 33.352 127.143 34.192 127.143 35.152C127.143 36.112 126.909 36.952 126.441 37.672C125.973 38.392 125.307 38.944 124.443 39.328C123.579 39.712 122.565 39.904 121.401 39.904H119.583V43H115.335V30.4H121.401ZM121.131 36.628C121.707 36.628 122.139 36.502 122.427 36.25C122.715 35.986 122.859 35.62 122.859 35.152C122.859 34.684 122.715 34.324 122.427 34.072C122.139 33.808 121.707 33.676 121.131 33.676H119.583V36.628H121.131ZM135.772 30.4C136.936 30.4 137.95 30.592 138.814 30.976C139.678 31.36 140.344 31.912 140.812 32.632C141.28 33.352 141.514 34.192 141.514 35.152C141.514 36.112 141.28 36.952 140.812 37.672C140.344 38.392 139.678 38.944 138.814 39.328C137.95 39.712 136.936 39.904 135.772 39.904H133.954V43H129.706V30.4H135.772ZM135.502 36.628C136.078 36.628 136.51 36.502 136.798 36.25C137.086 35.986 137.23 35.62 137.23 35.152C137.23 34.684 137.086 34.324 136.798 34.072C136.51 33.808 136.078 33.676 135.502 33.676H133.954V36.628H135.502ZM151.565 38.428V43H147.317V38.374L142.565 30.4H147.047L149.621 34.756L152.213 30.4H156.317L151.565 38.428ZM170.659 30.4C171.823 30.4 172.837 30.592 173.701 30.976C174.565 31.36 175.231 31.912 175.699 32.632C176.167 33.352 176.401 34.192 176.401 35.152C176.401 36.112 176.167 36.952 175.699 37.672C175.231 38.392 174.565 38.944 173.701 39.328C172.837 39.712 171.823 39.904 170.659 39.904H168.841V43H164.593V30.4H170.659ZM170.389 36.628C170.965 36.628 171.397 36.502 171.685 36.25C171.973 35.986 172.117 35.62 172.117 35.152C172.117 34.684 171.973 34.324 171.685 34.072C171.397 33.808 170.965 33.676 170.389 33.676H168.841V36.628H170.389ZM189.44 39.796V43H178.964V30.4H189.206V33.604H183.14V35.08H188.468V38.14H183.14V39.796H189.44ZM194.981 33.694H191.291V30.4H202.919V33.694H199.229V43H194.981V33.694Z" fill="black"/>
<defs>
<filter id="filter0_d" x="0" y="0" width="87" height="91.789" filterUnits="userSpaceOnUse" color-interpolation-filters="sRGB">
<feFlood flood-opacity="0" result="BackgroundImageFix"/>
<feColorMatrix in="SourceAlpha" type="matrix" values="0 0 0 0 0 0 0 0 0 0 0 0 0 0 0 0 0 0 127 0"/>
<feOffset dy="5"/>
<feGaussianBlur stdDeviation="10"/>
<feColorMatrix type="matrix" values="0 0 0 0 0 0 0 0 0 0 0 0 0 0 0 0 0 0 0.38 0"/>
<feBlend mode="normal" in2="BackgroundImageFix" result="effect1_dropShadow"/>
<feBlend mode="normal" in="SourceGraphic" in2="effect1_dropShadow" result="shape"/>
</filter>
</defs>
</svg>
