<svg width="41" height="41" viewBox="0 0 41 41" fill="none" xmlns="http://www.w3.org/2000/svg">
<circle cx="20.5" cy="20.5" r="20.5" fill="black"/>
<path d="M16.7994 23.6369H16.8002C16.8009 23.6369 16.8016 23.6367 16.8023 23.6367H26.3633C26.5987 23.6367 26.8056 23.4806 26.8703 23.2543L28.9797 15.8714C29.0251 15.7123 28.9933 15.5412 28.8937 15.4091C28.794 15.277 28.6381 15.1992 28.4727 15.1992H15.5832L15.2063 13.5028C15.1526 13.2615 14.9386 13.0898 14.6914 13.0898H11.5273C11.2361 13.0898 11 13.3259 11 13.6172C11 13.9085 11.2361 14.1445 11.5273 14.1445H14.2684C14.3352 14.4451 16.0724 22.2627 16.1724 22.7125C15.6119 22.9561 15.2188 23.5149 15.2188 24.1641C15.2188 25.0364 15.9285 25.7461 16.8008 25.7461H26.3633C26.6546 25.7461 26.8906 25.51 26.8906 25.2187C26.8906 24.9275 26.6546 24.6914 26.3633 24.6914H16.8008C16.5101 24.6914 16.2734 24.4548 16.2734 24.1641C16.2734 23.8737 16.5092 23.6375 16.7994 23.6369ZM27.7735 16.2539L25.9654 22.582H17.2238L15.8175 16.2539H27.7735Z" fill="white"/>
<path d="M16.2734 27.3281C16.2734 28.2004 16.9832 28.9102 17.8555 28.9102C18.7278 28.9102 19.4375 28.2004 19.4375 27.3281C19.4375 26.4558 18.7278 25.7461 17.8555 25.7461C16.9832 25.7461 16.2734 26.4558 16.2734 27.3281ZM17.8555 26.8008C18.1462 26.8008 18.3828 27.0374 18.3828 27.3281C18.3828 27.6189 18.1462 27.8555 17.8555 27.8555C17.5647 27.8555 17.3281 27.6189 17.3281 27.3281C17.3281 27.0374 17.5647 26.8008 17.8555 26.8008Z" fill="white"/>
<path d="M23.7266 27.3281C23.7266 28.2004 24.4363 28.9102 25.3086 28.9102C26.1809 28.9102 26.8906 28.2004 26.8906 27.3281C26.8906 26.4558 26.1809 25.7461 25.3086 25.7461C24.4363 25.7461 23.7266 26.4558 23.7266 27.3281ZM25.3086 26.8008C25.5993 26.8008 25.8359 27.0374 25.8359 27.3281C25.8359 27.6189 25.5993 27.8555 25.3086 27.8555C25.0179 27.8555 24.7812 27.6189 24.7812 27.3281C24.7812 27.0374 25.0179 26.8008 25.3086 26.8008Z" fill="white"/>
</svg>
