<svg width="20" height="22" viewBox="0 0 20 22" fill="none" xmlns="http://www.w3.org/2000/svg">
<path d="M2.71342 8.17668C2.73185 7.94696 2.83614 7.73262 3.0055 7.57634C3.17487 7.42005 3.39688 7.3333 3.62733 7.33334H16.3727C16.6031 7.3333 16.8251 7.42005 16.9945 7.57634C17.1639 7.73262 17.2681 7.94696 17.2866 8.17668L18.0905 18.1867C18.1107 18.4389 18.0785 18.6927 17.9959 18.9319C17.9133 19.1711 17.7821 19.3906 17.6104 19.5766C17.4388 19.7626 17.2306 19.911 16.9988 20.0126C16.767 20.1141 16.5167 20.1666 16.2636 20.1667H3.73642C3.48335 20.1666 3.23303 20.1141 3.00123 20.0126C2.76943 19.911 2.56117 19.7626 2.38956 19.5766C2.21794 19.3906 2.08669 19.1711 2.00408 18.9319C1.92146 18.6927 1.88926 18.4389 1.9095 18.1867L2.7125 8.17668H2.71342Z" stroke="#F2F2F2" stroke-width="2" stroke-linecap="round" stroke-linejoin="round"/>
<path d="M13.6666 10.0833V5.50001C13.6666 4.52755 13.2803 3.59492 12.5927 2.90729C11.9051 2.21965 10.9724 1.83334 9.99998 1.83334C9.02752 1.83334 8.09489 2.21965 7.40725 2.90729C6.71962 3.59492 6.33331 4.52755 6.33331 5.50001V10.0833" stroke="#F2F2F2" stroke-width="2" stroke-linecap="round" stroke-linejoin="round"/>
</svg>
