<svg width="20" height="22" viewBox="0 0 20 22" fill="none" xmlns="http://www.w3.org/2000/svg">
<path d="M2.71342 8.17662C2.73185 7.9469 2.83614 7.73256 3.0055 7.57628C3.17487 7.41999 3.39688 7.33324 3.62733 7.33328H16.3727C16.6031 7.33324 16.8251 7.41999 16.9945 7.57628C17.1639 7.73256 17.2681 7.9469 17.2866 8.17662L18.0905 18.1866C18.1107 18.4389 18.0785 18.6926 17.9959 18.9318C17.9133 19.171 17.7821 19.3905 17.6104 19.5765C17.4388 19.7625 17.2306 19.911 16.9988 20.0125C16.767 20.1141 16.5167 20.1665 16.2636 20.1666H3.73642C3.48335 20.1665 3.23303 20.1141 3.00123 20.0125C2.76943 19.911 2.56117 19.7625 2.38956 19.5765C2.21794 19.3905 2.08669 19.171 2.00408 18.9318C1.92146 18.6926 1.88926 18.4389 1.9095 18.1866L2.7125 8.17662H2.71342Z" stroke="#170805" stroke-width="2" stroke-linecap="round" stroke-linejoin="round"/>
<path d="M13.6666 10.0833V5.49995C13.6666 4.52749 13.2803 3.59486 12.5927 2.90722C11.9051 2.21959 10.9724 1.83328 9.99998 1.83328C9.02752 1.83328 8.09489 2.21959 7.40725 2.90722C6.71962 3.59486 6.33331 4.52749 6.33331 5.49995V10.0833" stroke="#170805" stroke-width="2" stroke-linecap="round" stroke-linejoin="round"/>
</svg>
