<svg width="17" height="18" viewBox="0 0 17 18" fill="none" xmlns="http://www.w3.org/2000/svg">
<path d="M15.6359 11.6095C14.5951 11.6095 13.5731 11.4401 12.6047 11.1072C12.1302 10.9388 11.5468 11.0933 11.2572 11.4027L9.34573 12.904C7.12896 11.6729 5.76347 10.2527 4.59632 7.96362L5.99682 6.02671C6.36068 5.64865 6.49119 5.09639 6.33483 4.57822C6.01342 3.56536 5.85015 2.50262 5.85015 1.41929C5.8502 0.636686 5.23824 0 4.48608 0H1.36411C0.611954 0 0 0.636686 0 1.41924C0 10.3894 7.01416 17.687 15.6359 17.687C16.388 17.687 17 17.0503 17 16.2678V13.0287C17 12.2462 16.388 11.6095 15.6359 11.6095Z" fill="#F3F1E3"/>
</svg>
