<svg width="20" height="22" viewBox="0 0 20 22" fill="none" xmlns="http://www.w3.org/2000/svg">
<path d="M2.71342 8.17652C2.73185 7.94681 2.83614 7.73247 3.0055 7.57618C3.17487 7.4199 3.39688 7.33314 3.62733 7.33319H16.3727C16.6031 7.33314 16.8251 7.4199 16.9945 7.57618C17.1639 7.73247 17.2681 7.94681 17.2866 8.17652L18.0905 18.1865C18.1107 18.4388 18.0785 18.6925 17.9959 18.9317C17.9133 19.1709 17.7821 19.3904 17.6104 19.5764C17.4388 19.7624 17.2306 19.9109 16.9988 20.0124C16.767 20.114 16.5167 20.1664 16.2636 20.1665H3.73642C3.48335 20.1664 3.23303 20.114 3.00123 20.0124C2.76943 19.9109 2.56117 19.7624 2.38956 19.5764C2.21794 19.3904 2.08669 19.1709 2.00408 18.9317C1.92146 18.6925 1.88926 18.4388 1.9095 18.1865L2.7125 8.17652H2.71342Z" stroke="#170805" stroke-width="2" stroke-linecap="round" stroke-linejoin="round"/>
<path d="M13.6666 10.0832V5.49986C13.6666 4.5274 13.2803 3.59477 12.5927 2.90713C11.9051 2.2195 10.9724 1.83319 9.99998 1.83319C9.02752 1.83319 8.09489 2.2195 7.40725 2.90713C6.71962 3.59477 6.33331 4.5274 6.33331 5.49986V10.0832" stroke="#170805" stroke-width="2" stroke-linecap="round" stroke-linejoin="round"/>
</svg>
