<svg width="22" height="22" viewBox="0 0 22 22" fill="none" xmlns="http://www.w3.org/2000/svg">
<g clip-path="url(#clip0)">
<path d="M3.71342 8.17659C3.73185 7.94687 3.83614 7.73253 4.0055 7.57625C4.17487 7.41996 4.39688 7.3332 4.62733 7.33325H17.3727C17.6031 7.3332 17.8251 7.41996 17.9945 7.57625C18.1639 7.73253 18.2681 7.94687 18.2866 8.17659L19.0905 18.1866C19.1107 18.4388 19.0785 18.6926 18.9959 18.9318C18.9133 19.171 18.7821 19.3905 18.6104 19.5765C18.4388 19.7625 18.2306 19.9109 17.9988 20.0125C17.767 20.114 17.5167 20.1665 17.2636 20.1666H4.73642C4.48335 20.1665 4.23303 20.114 4.00123 20.0125C3.76943 19.9109 3.56117 19.7625 3.38956 19.5765C3.21794 19.3905 3.08669 19.171 3.00408 18.9318C2.92146 18.6926 2.88926 18.4388 2.9095 18.1866L3.7125 8.17659H3.71342Z" stroke="#F2F2F2" stroke-width="2" stroke-linecap="round" stroke-linejoin="round"/>
<path d="M14.6666 10.0833V5.49992C14.6666 4.52746 14.2803 3.59483 13.5927 2.90719C12.9051 2.21956 11.9724 1.83325 11 1.83325C10.0275 1.83325 9.09489 2.21956 8.40725 2.90719C7.71962 3.59483 7.33331 4.52746 7.33331 5.49992V10.0833" stroke="#F2F2F2" stroke-width="2" stroke-linecap="round" stroke-linejoin="round"/>
</g>
<defs>
<clipPath id="clip0">
<rect width="22" height="22" fill="white"/>
</clipPath>
</defs>
</svg>
