<svg width="32" height="53" viewBox="0 0 32 53" fill="none" xmlns="http://www.w3.org/2000/svg">
<path d="M12.4932 26.4124L29.6159 9.04042C31.4808 7.14847 31.4586 4.07468 29.5665 2.20977C27.6744 0.344855 24.43 0.368297 22.7358 2.25912L2.05173 23.0724C1.20414 23.9323 0.701602 25.3023 0.710238 26.4976C0.720109 27.8637 1.24106 29.0554 2.10108 29.903L22.9142 50.5872C23.7743 51.4348 25.144 51.9373 26.3394 51.9286C27.7056 51.9188 28.8973 51.3979 29.7449 50.5378C31.6098 48.6458 31.5876 45.5721 29.6955 43.7071L12.4932 26.4124ZM27.5064 47.9923C26.9979 48.5082 25.9732 48.5156 25.4572 48.0071L4.47451 27.4951C4.1305 27.156 3.95726 26.8157 3.95479 26.4741C3.95233 26.1326 4.12063 25.7898 4.4597 25.4458L25.1438 4.63265C25.3121 4.28987 25.6523 4.11673 26.1647 4.11303C26.6772 4.10933 26.8491 4.27886 27.1931 4.61784C27.709 5.12635 27.7164 6.15098 27.2079 6.667L8.72766 25.2442C8.38858 25.5882 8.22028 25.931 8.22398 26.4432C8.22768 26.9554 8.40092 27.2958 8.74493 27.6349L27.3209 45.9443C28.0089 46.6225 28.0151 47.4764 27.5064 47.9923Z" fill="#448B6D"/>
</svg>
