<svg width="31" height="51" viewBox="0 0 31 51" fill="none" xmlns="http://www.w3.org/2000/svg">
<path d="M29.015 22.198L8.22306 1.40606C6.34831 -0.468687 3.1103 -0.468687 1.40599 1.40606C-0.468662 3.28081 -0.468662 6.34838 1.40599 8.22313L18.6191 25.6066L1.40609 42.8196C-0.468563 44.6943 -0.468563 47.762 1.40609 49.6366C2.25825 50.4888 3.6216 51 4.81452 51C6.00744 51 7.371 50.4888 8.22306 49.6365L29.015 29.015C29.8672 28.1628 30.3785 26.7995 30.3785 25.6065C30.3785 24.4135 29.8672 23.0502 29.015 22.198ZM26.6291 26.6291L6.00754 47.2507C5.49625 47.7619 4.47376 47.7619 3.96246 47.2507C3.45117 46.7395 3.45117 45.7168 3.96246 45.2056L22.3685 26.7996C23.0502 26.1179 23.0502 25.0954 22.3685 24.4136L3.79203 6.00762C3.28074 5.32589 3.28074 4.47373 3.79203 3.96254C4.13289 3.62167 4.47376 3.45134 4.81462 3.45134C5.15548 3.45134 5.49635 3.62167 5.83721 3.96254L26.6292 24.7545C26.97 25.0954 27.1404 25.4362 27.1404 25.7771C26.9699 25.9473 26.7995 26.4587 26.6291 26.6291Z" fill="#448B6D"/>
</svg>
