<svg width="55" height="55" viewBox="0 0 55 55" fill="none" xmlns="http://www.w3.org/2000/svg">
<circle cx="27.5" cy="27.5" r="27" stroke="#DCBCD4"/>
<g clip-path="url(#clip0)">
<path d="M27 21.6484C23.4977 21.6484 20.6484 24.4977 20.6484 28C20.6484 31.5023 23.4977 34.3516 27 34.3516C30.5023 34.3516 33.3516 31.5023 33.3516 28C33.3516 24.4977 30.5023 21.6484 27 21.6484ZM27 32.9453C24.2732 32.9453 22.0547 30.7268 22.0547 28C22.0547 25.2732 24.2732 23.0547 27 23.0547C29.727 23.0547 31.9453 25.2732 31.9453 28C31.9453 30.7268 29.727 32.9453 27 32.9453Z" fill="#DCBCD4"/>
<path d="M36.5817 18.4183C35.0224 16.8588 32.9568 16 30.7657 16H23.2343C21.0432 16 18.9776 16.8588 17.4183 18.4183C15.8588 19.9776 15 22.0432 15 24.2343V31.7656C15 33.9568 15.8588 36.0224 17.4183 37.5817C18.9776 39.1412 21.0432 40 23.2343 40H30.7657C32.9568 40 35.0224 39.1412 36.5817 37.5817C38.1412 36.0224 39 33.9568 39 31.7656V24.2343C39 22.0432 38.1412 19.9776 36.5817 18.4183ZM37.5938 31.7656C37.5938 35.5306 34.5306 38.5938 30.7657 38.5938H23.2343C19.4694 38.5938 16.4062 35.5306 16.4062 31.7656V24.2343C16.4062 20.4694 19.4694 17.4062 23.2343 17.4062H30.7657C34.5306 17.4062 37.5938 20.4694 37.5938 24.2343V31.7656Z" fill="#DCBCD4"/>
<path d="M33.5396 20.7573C33.3543 20.7573 33.173 20.8328 33.0421 20.9637C32.9114 21.0944 32.8365 21.2759 32.8365 21.4604C32.8365 21.6456 32.9114 21.827 33.0421 21.9578C33.173 22.0887 33.3543 22.1636 33.5396 22.1636C33.7242 22.1636 33.9056 22.0887 34.0364 21.9578C34.1671 21.827 34.2427 21.6456 34.2427 21.4604C34.2427 21.2759 34.1671 21.0944 34.0364 20.9637C33.9056 20.8329 33.7242 20.7573 33.5396 20.7573Z" fill="#DCBCD4"/>
</g>
<defs>
<clipPath id="clip0">
<rect width="24" height="24" fill="white" transform="translate(15 16)"/>
</clipPath>
</defs>
</svg>
