<svg width="55" height="55" viewBox="0 0 55 55" fill="none" xmlns="http://www.w3.org/2000/svg">
<path d="M15.473 35.5949C17.695 37.0049 20.281 37.7499 22.951 37.7499C26.861 37.7499 30.444 36.2479 33.041 33.5209C35.526 30.9109 36.893 27.4039 36.825 23.8449C37.767 23.0389 38.875 21.4999 38.875 19.9999C38.875 19.4249 38.251 19.0599 37.745 19.3529C36.86 19.8729 36.053 20.0089 35.223 19.7759C33.528 18.1239 31.005 17.7759 28.879 18.9219C27.021 19.9219 25.988 21.7519 26.081 23.7519C22.942 23.3689 20.042 21.7949 18.02 19.3489C17.688 18.9499 17.058 18.9969 16.794 19.4489C15.82 21.1169 15.83 23.0499 16.677 24.6109C16.274 24.6819 16.025 25.0209 16.025 25.3879C16.025 26.9569 16.731 28.3989 17.868 29.3829C17.656 29.5869 17.586 29.8899 17.676 30.1599C18.176 31.6619 19.308 32.8359 20.723 33.4239C19.184 34.1589 17.482 34.4039 15.967 34.2179C15.183 34.1119 14.796 35.1659 15.473 35.5949ZM23.156 33.6809C23.717 33.2499 23.419 32.3519 22.715 32.3369C21.475 32.3109 20.346 31.6999 19.643 30.7389C19.982 30.7169 20.333 30.6649 20.667 30.5749C21.428 30.3689 21.392 29.2709 20.619 29.1159C19.216 28.8339 18.115 27.8119 17.702 26.4959C18.079 26.5889 18.463 26.6409 18.846 26.6479C19.605 26.6519 19.892 25.6789 19.273 25.2719C17.878 24.3529 17.283 22.7299 17.677 21.2039C20.113 23.6719 23.418 25.1589 26.914 25.3269C27.415 25.3579 27.791 24.8869 27.681 24.4099C27.206 22.3509 28.356 20.9079 29.591 20.2429C30.813 19.5829 32.775 19.3769 34.279 20.9549C34.726 21.4259 36.234 21.4439 37.001 21.2649C36.657 21.9129 36.128 22.5279 35.633 22.8739C35.422 23.0219 35.301 23.2679 35.314 23.5249C35.475 26.8099 34.251 30.0759 31.956 32.4849C29.644 34.9119 26.447 36.2489 22.952 36.2489C21.562 36.2489 20.199 36.0229 18.911 35.5869C20.451 35.2889 21.914 34.6369 23.156 33.6809Z" fill="#DCBCD4"/>
<circle cx="27.5" cy="27.5" r="27" stroke="#DCBCD4"/>
</svg>
