<svg width="55" height="55" viewBox="0 0 55 55" fill="none" xmlns="http://www.w3.org/2000/svg">
<g clip-path="url(#clip0)">
<path d="M31.6558 26.2867L25.6909 23.0229C25.3479 22.8353 24.9425 22.8423 24.6064 23.0415C24.27 23.2409 24.0693 23.5931 24.0693 23.9841V30.4556C24.0693 30.8447 24.2687 31.1963 24.6029 31.3959C24.7773 31.5002 24.9708 31.5525 25.1646 31.5525C25.3422 31.5525 25.5201 31.5086 25.6839 31.4205L31.649 28.2129C32.0031 28.0224 32.2242 27.6543 32.2258 27.252C32.2273 26.8497 32.0089 26.4799 31.6558 26.2867ZM25.6516 29.6415V24.8048L30.1097 27.2441L25.6516 29.6415Z" fill="#DCBCD4"/>
<path d="M40.8013 22.0962L40.8001 22.0838C40.7772 21.8665 40.5496 19.9334 39.6099 18.9502C38.5237 17.7938 37.2922 17.6533 36.7 17.5859C36.651 17.5804 36.6061 17.5752 36.5659 17.5699L36.5187 17.5649C32.9493 17.3054 27.5587 17.2699 27.5047 17.2697L27.4999 17.2695L27.4952 17.2697C27.4412 17.2699 22.0506 17.3054 18.449 17.5649L18.4014 17.5699C18.3631 17.575 18.3209 17.5798 18.275 17.5851C17.6895 17.6527 16.4713 17.7934 15.382 18.9916C14.487 19.9643 14.2282 21.856 14.2017 22.0686L14.1986 22.0962C14.1905 22.1866 14 24.3394 14 26.5007V28.5211C14 30.6824 14.1905 32.8352 14.1986 32.9259L14.2 32.9395C14.2229 33.1533 14.4503 35.0509 15.3857 36.0345C16.407 37.1522 17.6984 37.3001 18.393 37.3797C18.5028 37.3922 18.5973 37.4029 18.6618 37.4143L18.7242 37.4229C20.7852 37.619 27.247 37.7156 27.521 37.7196L27.5292 37.7198L27.5374 37.7196C27.5914 37.7193 32.9818 37.6839 36.5513 37.4244L36.5984 37.4194C36.6436 37.4134 36.6942 37.4081 36.7498 37.4023C37.332 37.3405 38.5436 37.2122 39.6179 36.0302C40.5129 35.0573 40.7719 33.1656 40.7982 32.9533L40.8013 32.9257C40.8093 32.835 41.0001 30.6824 41.0001 28.5211V26.5007C40.9999 24.3394 40.8093 22.1868 40.8013 22.0962ZM39.4177 28.5211C39.4177 30.5215 39.243 32.5817 39.2265 32.7708C39.1593 33.2917 38.8864 34.4885 38.4503 34.9625C37.778 35.7023 37.0873 35.7756 36.583 35.8289C36.522 35.8353 36.4656 35.8415 36.4145 35.8479C32.9621 36.0976 27.7749 36.1359 27.536 36.1373C27.268 36.1334 20.9008 36.036 18.9026 35.8504C18.8003 35.8337 18.6896 35.8209 18.573 35.8077C17.9816 35.74 17.1721 35.6473 16.5496 34.9625L16.5349 34.9469C16.1065 34.5005 15.8414 33.3813 15.774 32.7769C15.7614 32.634 15.5822 30.5495 15.5822 28.5211V26.5007C15.5822 24.5026 15.7565 22.4447 15.7734 22.2517C15.8535 21.638 16.1316 20.5137 16.5496 20.0593C17.2425 19.2971 17.9732 19.2127 18.4564 19.1568C18.5026 19.1515 18.5456 19.1465 18.5854 19.1414C22.0881 18.8905 27.3125 18.8532 27.4999 18.8518C27.6874 18.853 32.9099 18.8905 36.3815 19.1414C36.4242 19.1468 36.4707 19.1521 36.5208 19.1579C37.0178 19.2145 37.7691 19.3002 38.4586 20.0356L38.4649 20.0424C38.8934 20.4888 39.1585 21.6275 39.2259 22.2441C39.2378 22.379 39.4177 24.468 39.4177 26.5007V28.5211Z" fill="#DCBCD4"/>
</g>
<circle cx="27.5" cy="27.5" r="27" stroke="#DCBCD4"/>
<defs>
<clipPath id="clip0">
<rect width="27" height="27" fill="white" transform="translate(14 14)"/>
</clipPath>
</defs>
</svg>
